Stuck Between Stations 2011 DVDRip XViD DTRG

Format : AVI
Format/Info : Audio Video Interleave
File size : 1.35 GiB
Duration : 1h 24mn
Overall bit rate : 2 294 Kbps
Writing library : VirtualDub build 32842/release

Video
ID : 0
Format : MPEG-4 Visual
Format profile : Advanced Simple@L5
Format settings, BVOP : 2
Format settings, QPel : No
Format settings, GMC : No warppoints
Format settings, Matrix : Default (H.263)
Muxing mode : Packed bitstream
Codec ID : XVID
Codec ID/Hint : XviD
Duration : 1h 24mn
Bit rate : 1 835 Kbps
Width : 720 pixels
Height : 400 pixels
Display aspect ratio : 16:9
Frame rate : 29.970 fps
Color space : YUV
Chroma subsampling : 4:2:0
Bit depth : 8 bits
Scan type : Progressive
Compression mode : Lossy
Bits/(Pixel*Frame) : 0.213
Stream size : 1.08 GiB (80%)
Writing library : XviD 64

Audio
ID : 1
Format : AC-3
Format/Info : Audio Coding 3
Mode extension : CM (complete main)
Codec ID : 2000
Duration : 1h 24mn
Bit rate mode : Constant
Bit rate : 448 Kbps
Channel(s) : 6 channels
Channel positions : Front: L C R, Side: L R, LFE
Sampling rate : 48.0 KHz
Bit depth : 16 bits
Compression mode : Lossy
Stream size : 271 MiB (20%)
Alignment : Aligned on interleaves
Interleave, duration : 33 ms (1.00 video frame)
Interleave, preload duration : 512 ms

 
http://www.imdb.com/title/tt1536440/


Storyline:


Casper, a soldier haunted by the horrors of war, and Rebecca, a whip-smart grad student with a shaky future. A decade after they graduate from high school, they reunite by chance and get to know each other over the course of an accidental tour of the little-known underbelly of Minneapolis. 


Source Used:


Stuck Between Stations 2011 COMPLETE R1 NTSC DVDR-CME....Thanks


Poster:

 
http://i.imgur.com/4TaBp.jpg


Screenshots:

 
http://i.imgur.com/jC5KR.jpg


ENJOY!